<?xml version="1.0" encoding="utf-8"?>
<!-- Generator: Adobe Illustrator 16.0.0, SVG Export Plug-In . SVG Version: 6.00 Build 0)  -->
<!DOCTYPE svg PUBLIC "-//W3C//DTD SVG 1.1//EN" "http://www.w3.org/Graphics/SVG/1.1/DTD/svg11.dtd">
<svg version="1.1" id="Capa_1" xmlns="http://www.w3.org/2000/svg" xmlns:xlink="http://www.w3.org/1999/xlink" x="0px" y="0px"
	 width="612px" height="792px" viewBox="0 0 612 792" enable-background="new 0 0 612 792" xml:space="preserve">
<g>
	<path fill="#6D6E70" d="M606.64,670.789L457.914,522.063c39.896-45.865,64.05-105.709,64.05-171.115
		C521.964,206.972,404.856,90,261.016,90C117.04,90,0.068,207.108,0.068,350.948c0,143.84,117.108,260.948,260.948,260.948
		c65.407,0,125.25-24.154,171.116-64.05l148.726,148.726c3.528,3.528,8.277,5.428,12.891,5.428c4.614,0,9.363-1.764,12.892-5.428
		C613.696,689.516,613.696,677.846,606.64,670.789z M36.571,350.948c0-123.757,100.688-224.31,224.31-224.31
		c123.757,0,224.309,100.688,224.309,224.31c0,123.621-100.552,224.445-224.309,224.445
		C137.259,575.394,36.571,474.705,36.571,350.948z"/>
</g>
</svg>
