<?xml version="1.0" encoding="utf-8"?>
<!-- Generator: Adobe Illustrator 16.0.0, SVG Export Plug-In . SVG Version: 6.00 Build 0)  -->
<!DOCTYPE svg PUBLIC "-//W3C//DTD SVG 1.1//EN" "http://www.w3.org/Graphics/SVG/1.1/DTD/svg11.dtd">
<svg version="1.1" id="Capa_1" xmlns="http://www.w3.org/2000/svg" xmlns:xlink="http://www.w3.org/1999/xlink" x="0px" y="0px"
	 width="446.852px" height="446.852px" viewBox="0 0 446.852 446.852" enable-background="new 0 0 446.852 446.852"
	 xml:space="preserve">
<g>
	<path fill="#FFFFFF" d="M444.274,93.36c-2.559-3.666-6.674-5.932-11.145-6.123L155.942,75.289
		c-7.953-0.348-14.599,5.792-14.939,13.708c-0.338,7.913,5.792,14.599,13.707,14.939l258.421,11.14L362.321,273.61H136.205
		L95.354,51.179c-0.898-4.875-4.245-8.942-8.861-10.753L19.586,14.141c-7.374-2.887-15.695,0.735-18.591,8.1
		c-2.891,7.369,0.73,15.695,8.1,18.591l59.491,23.371l41.572,226.334c1.253,6.805,7.183,11.746,14.104,11.746h6.896l-15.747,43.74
		c-1.318,3.664-0.775,7.732,1.468,10.916c2.24,3.184,5.883,5.078,9.772,5.078h11.045c-6.844,7.617-11.045,17.646-11.045,28.675
		c0,23.718,19.299,43.013,43.012,43.013s43.012-19.295,43.012-43.013c0-11.028-4.201-21.058-11.044-28.675h93.778
		c-6.848,7.617-11.048,17.646-11.048,28.675c0,23.718,19.294,43.013,43.013,43.013s43.012-19.295,43.012-43.013
		c0-11.028-4.201-21.058-11.043-28.675h13.434c6.6,0,11.947-5.35,11.947-11.947c0-6.6-5.35-11.947-11.947-11.947H143.651
		l12.902-35.844h216.221c6.234,0,11.752-4.027,13.65-9.96l59.74-186.387C447.536,101.679,446.833,97.028,444.274,93.36z
		 M169.664,409.815c-10.543,0-19.117-8.574-19.117-19.117s8.574-19.117,19.117-19.117s19.116,8.574,19.116,19.117
		S180.207,409.815,169.664,409.815z M327.374,409.815c-10.543,0-19.117-8.574-19.117-19.117s8.574-19.117,19.117-19.117
		s19.115,8.574,19.115,19.117S337.917,409.815,327.374,409.815z"/>
</g>
</svg>
